<svg version="1.1" id="Layer_1" xmlns="http://www.w3.org/2000/svg" xmlns:xlink="http://www.w3.org/1999/xlink" x="0px" y="0px"
	 width="100%" viewBox="0 0 512 512" enable-background="new 0 0 512 512" xml:space="preserve">
<path fill="#000000" opacity="1.000000" stroke="none" 
	d="
M513.000000,196.000000 
	C513.000000,301.974243 513.000000,407.448486 513.000000,512.961365 
	C342.400757,512.961365 171.801483,512.961365 1.101111,512.961365 
	C1.101111,342.442444 1.101111,171.884827 1.101111,1.163595 
	C171.666534,1.163595 342.333252,1.163595 513.000000,1.163595 
	C513.000000,65.865143 513.000000,130.682571 513.000000,196.000000 
M108.275696,256.722412 
	C105.646477,264.688446 100.227371,268.094635 91.853966,267.050995 
	C89.228973,266.723816 86.528793,266.999969 83.863022,266.999969 
	C75.757645,266.999969 67.652267,266.999969 59.502140,266.999969 
	C47.212101,342.594208 35.021961,417.574005 22.759275,493.000031 
	C25.034136,493.000031 26.840702,493.000061 28.647266,493.000061 
	C88.627060,493.000061 148.606857,492.998810 208.586655,493.001373 
	C217.405426,493.001740 219.782684,494.693207 222.405548,502.828186 
	C230.512604,502.828186 238.636963,502.828186 246.709976,502.828186 
	C248.634064,496.190460 251.673981,493.221649 256.618286,493.028290 
	C261.795807,492.825806 265.122620,495.829620 267.429871,502.812500 
	C275.538391,502.812500 283.656097,502.812500 291.717133,502.812500 
	C293.969055,495.041168 296.661530,493.005249 304.649963,493.003967 
	C352.800415,492.996155 400.950867,493.000061 449.101318,493.000061 
	C450.874847,493.000061 452.648376,493.000031 454.496399,493.000031 
	C466.782990,417.422668 478.973206,342.438293 491.237183,266.999969 
	C488.996735,266.999969 487.188324,266.999969 485.379913,266.999969 
	C410.238556,266.999969 335.097107,266.952026 259.955994,267.084503 
	C253.449448,267.095978 249.411911,264.750519 246.673630,258.829376 
	C242.212250,249.182312 237.139786,239.819534 232.507294,230.248672 
	C231.345596,227.848587 230.057892,226.913742 227.266388,226.923584 
	C193.778091,227.041779 160.289108,227.038162 126.800735,226.929001 
	C124.058739,226.920074 122.693291,227.734619 121.522263,230.193665 
	C117.379654,238.892639 112.979141,247.468781 108.275696,256.722412 
M427.499573,247.000458 
	C433.931671,247.000458 440.363770,247.000458 446.710052,247.000458 
	C446.710052,186.684937 446.710052,126.951172 446.710052,67.286041 
	C353.354797,67.286041 260.290192,67.286041 167.287231,67.286041 
	C167.287231,113.974571 167.287231,160.376022 167.287231,207.000458 
	C169.381149,207.000458 171.193787,207.000458 173.006409,207.000458 
	C239.666260,207.000458 306.326111,207.000015 372.985962,207.003036 
	C374.651978,207.003113 376.333771,206.901581 377.981110,207.087540 
	C383.081451,207.663284 386.877014,211.834183 386.968231,216.814316 
	C387.062897,221.986389 383.168579,226.351562 377.846802,226.925705 
	C376.362671,227.085800 374.850098,226.997223 373.350555,226.997330 
	C335.354431,227.000137 297.358337,226.999542 259.362213,226.999542 
	C257.588104,226.999542 255.813995,226.999542 253.269424,226.999542 
	C256.055298,232.634354 258.761658,237.545410 260.926147,242.684708 
	C262.362305,246.094681 264.298431,247.110504 268.016296,247.100204 
	C320.843842,246.953812 373.671875,247.000458 427.499573,247.000458 
M276.500000,21.000259 
	C213.429535,21.000259 150.359085,21.000259 87.217575,21.000259 
	C87.217575,96.651619 87.217575,171.717255 87.217575,248.546494 
	C89.573830,246.434219 91.406219,245.476364 92.195602,243.971436 
	C96.904343,234.994354 101.736557,226.050781 105.804398,216.778793 
	C108.980698,209.538864 113.606163,206.335144 121.632484,206.874191 
	C130.010315,207.436829 138.455292,206.999786 146.999786,206.999786 
	C146.999786,204.448761 146.999786,202.623779 146.999786,200.798782 
	C146.999786,153.986877 146.997437,107.174965 147.001633,60.363056 
	C147.002548,50.117115 150.143204,47.001659 160.464157,47.001217 
	C227.266922,46.998360 294.069672,46.999752 360.872437,46.999748 
	C362.811127,46.999748 364.749847,46.999748 366.694214,46.999748 
	C366.694214,38.047127 366.694214,29.652603 366.694214,21.000259 
	C336.759583,21.000259 307.129791,21.000259 276.500000,21.000259 
M20.998835,350.500000 
	C20.998835,358.324677 20.998835,366.149353 20.998835,373.974030 
	C21.768097,373.557465 21.949612,373.120178 22.023979,372.665344 
	C28.327106,334.113495 34.612434,295.558777 40.925911,257.008636 
	C42.099274,249.844070 45.445698,247.061447 52.804146,247.007736 
	C57.410809,246.974106 62.017914,247.001480 66.680618,247.001480 
	C66.680618,226.726761 66.680618,207.022156 66.680618,187.361343 
	C51.314785,187.361343 36.272305,187.361343 20.998833,187.361343 
	C20.998833,241.648987 20.998833,295.574493 20.998835,350.500000 
z"/>
<path fill="#FFDA8F" opacity="1.000000" stroke="none" 
	d="
M108.476044,256.406952 
	C112.979141,247.468781 117.379654,238.892639 121.522263,230.193665 
	C122.693291,227.734619 124.058739,226.920074 126.800735,226.929001 
	C160.289108,227.038162 193.778091,227.041779 227.266388,226.923584 
	C230.057892,226.913742 231.345596,227.848587 232.507294,230.248672 
	C237.139786,239.819534 242.212250,249.182312 246.673630,258.829376 
	C249.411911,264.750519 253.449448,267.095978 259.955994,267.084503 
	C335.097107,266.952026 410.238556,266.999969 485.379913,266.999969 
	C487.188324,266.999969 488.996735,266.999969 491.237183,266.999969 
	C478.973206,342.438293 466.782990,417.422668 454.496399,493.000031 
	C452.648376,493.000031 450.874847,493.000061 449.101318,493.000061 
	C400.950867,493.000061 352.800415,492.996155 304.649963,493.003967 
	C296.661530,493.005249 293.969055,495.041168 291.717133,502.812500 
	C283.656097,502.812500 275.538391,502.812500 267.429871,502.812500 
	C265.122620,495.829620 261.795807,492.825806 256.618286,493.028290 
	C251.673981,493.221649 248.634064,496.190460 246.709976,502.828186 
	C238.636963,502.828186 230.512604,502.828186 222.405548,502.828186 
	C219.782684,494.693207 217.405426,493.001740 208.586655,493.001373 
	C148.606857,492.998810 88.627060,493.000061 28.647266,493.000061 
	C26.840702,493.000061 25.034136,493.000031 22.759275,493.000031 
	C35.021961,417.574005 47.212101,342.594208 59.502140,266.999969 
	C67.652267,266.999969 75.757645,266.999969 83.863022,266.999969 
	C86.528793,266.999969 89.228973,266.723816 91.853966,267.050995 
	C100.227371,268.094635 105.646477,264.688446 108.476044,256.406952 
M347.000000,453.477356 
	C347.000000,415.483673 347.007660,377.489960 346.994354,339.496277 
	C346.991241,330.534668 343.517151,327.029114 334.662598,327.005402 
	C325.553253,326.981018 316.443787,327.000000 307.000000,327.000000 
	C307.000000,317.543152 307.014008,308.579590 306.996094,299.616119 
	C306.977722,290.427094 303.539917,287.008728 294.282532,287.004181 
	C269.453430,286.991974 244.624313,286.992493 219.795197,287.003815 
	C210.304245,287.008148 207.012970,290.372498 207.002121,300.031799 
	C206.992096,308.958069 206.999985,317.884338 206.999985,326.685822 
	C206.049820,326.862762 205.733383,326.972656 205.416748,326.973236 
	C196.918365,326.989014 188.419968,326.987396 179.921585,327.001617 
	C170.289551,327.017761 167.005203,330.284424 167.003296,339.905396 
	C166.995392,379.898590 166.996429,419.891815 167.002518,459.885010 
	C167.004028,469.750458 170.277451,472.996796 180.220154,472.997772 
	C229.711746,473.002686 279.203339,473.000000 328.694916,473.000000 
	C345.769257,473.000000 347.000000,471.753876 347.000000,453.477356 
z"/>
<path fill="#EEFAFF" opacity="1.000000" stroke="none" 
	d="
M426.999695,247.000458 
	C373.671875,247.000458 320.843842,246.953812 268.016296,247.100204 
	C264.298431,247.110504 262.362305,246.094681 260.926147,242.684708 
	C258.761658,237.545410 256.055298,232.634354 253.269424,226.999542 
	C255.813995,226.999542 257.588104,226.999542 259.362213,226.999542 
	C297.358337,226.999542 335.354431,227.000137 373.350555,226.997330 
	C374.850098,226.997223 376.362671,227.085800 377.846802,226.925705 
	C383.168579,226.351562 387.062897,221.986389 386.968231,216.814316 
	C386.877014,211.834183 383.081451,207.663284 377.981110,207.087540 
	C376.333771,206.901581 374.651978,207.003113 372.985962,207.003036 
	C306.326111,207.000015 239.666260,207.000458 173.006409,207.000458 
	C171.193787,207.000458 169.381149,207.000458 167.287231,207.000458 
	C167.287231,160.376022 167.287231,113.974571 167.287231,67.286041 
	C260.290192,67.286041 353.354797,67.286041 446.710052,67.286041 
	C446.710052,126.951172 446.710052,186.684937 446.710052,247.000458 
	C440.363770,247.000458 433.931671,247.000458 426.999695,247.000458 
M253.438492,91.954407 
	C240.911392,84.607025 227.195404,85.113602 217.511841,94.558586 
	C213.319794,98.647339 210.190674,104.390625 208.119583,109.955788 
	C205.070541,118.148659 207.595657,126.214027 211.867676,133.651779 
	C210.126785,134.871750 208.591766,135.858749 207.152588,136.969894 
	C194.404190,146.812576 187.574799,159.772385 187.054596,175.886490 
	C186.832825,182.756104 190.878174,186.944931 197.687851,186.966171 
	C223.821640,187.047684 249.955963,187.042267 276.089844,186.974442 
	C283.152649,186.956116 287.047089,182.754822 286.958954,175.603409 
	C286.936523,173.780243 286.774597,171.944504 286.502106,170.140930 
	C284.092010,154.189941 275.658173,142.203857 262.182983,133.686234 
	C270.544800,116.875244 267.749054,102.881813 253.438492,91.954407 
M334.500305,126.998940 
	C328.673889,127.003265 322.842255,126.854759 317.022400,127.052658 
	C310.522766,127.273666 306.014893,132.785202 307.147125,138.772232 
	C308.123901,143.937271 312.263184,146.979538 318.589050,146.988876 
	C339.897186,147.020294 361.205414,147.001694 382.513611,147.000763 
	C393.833588,147.000275 405.154877,147.102188 416.473022,146.956635 
	C423.721924,146.863434 428.534729,140.641052 426.599945,134.254349 
	C425.170380,129.535355 421.378265,127.015411 415.405945,127.009872 
	C388.770691,126.985161 362.135437,126.999016 334.500305,126.998940 
M338.500000,187.001053 
	C364.302887,187.000824 390.105865,187.032318 415.908661,186.978683 
	C422.611115,186.964752 427.100494,182.693115 426.969879,176.777359 
	C426.843750,171.065155 422.447876,167.030304 415.970795,167.021042 
	C383.342682,166.974426 350.714478,166.974289 318.086365,167.020508 
	C311.373016,167.030014 306.894867,171.289490 307.027771,177.213577 
	C307.156372,182.945435 311.526917,186.900146 318.023224,186.982315 
	C324.514557,187.064438 331.007690,187.000809 338.500000,187.001053 
M339.500000,86.998940 
	C332.008881,87.003242 324.513672,86.855484 317.027924,87.057854 
	C310.527649,87.233574 306.017853,92.779701 307.146362,98.766632 
	C308.120209,103.933060 312.259949,106.979401 318.583374,106.988792 
	C339.891510,107.020424 361.199738,107.001694 382.507935,107.000778 
	C393.827911,107.000290 405.149017,107.093781 416.467407,106.958557 
	C423.318939,106.876709 428.013580,101.391571 426.847870,95.225792 
	C425.871277,90.060524 421.731689,87.017693 415.411621,87.010612 
	C390.441101,86.982643 365.470551,86.999016 339.500000,86.998940 
M415.800262,207.058151 
	C408.858368,209.218246 405.599426,214.249680 407.458160,219.937302 
	C409.033417,224.757401 413.979675,227.779694 418.788391,226.860306 
	C423.497009,225.960052 427.028992,221.666122 426.982971,216.897980 
	C426.929718,211.373764 423.181244,207.805161 415.800262,207.058151 
z"/>
<path fill="#FF7D95" opacity="1.000000" stroke="none" 
	d="
M277.000000,21.000259 
	C307.129791,21.000259 336.759583,21.000259 366.694214,21.000259 
	C366.694214,29.652603 366.694214,38.047127 366.694214,46.999748 
	C364.749847,46.999748 362.811127,46.999748 360.872437,46.999748 
	C294.069672,46.999752 227.266922,46.998360 160.464157,47.001217 
	C150.143204,47.001659 147.002548,50.117115 147.001633,60.363056 
	C146.997437,107.174965 146.999786,153.986877 146.999786,200.798782 
	C146.999786,202.623779 146.999786,204.448761 146.999786,206.999786 
	C138.455292,206.999786 130.010315,207.436829 121.632484,206.874191 
	C113.606163,206.335144 108.980698,209.538864 105.804398,216.778793 
	C101.736557,226.050781 96.904343,234.994354 92.195602,243.971436 
	C91.406219,245.476364 89.573830,246.434219 87.217575,248.546494 
	C87.217575,171.717255 87.217575,96.651619 87.217575,21.000259 
	C150.359085,21.000259 213.429535,21.000259 277.000000,21.000259 
z"/>
<path fill="#6D91AB" opacity="1.000000" stroke="none" 
	d="
M20.998833,350.000000 
	C20.998833,295.574493 20.998833,241.648987 20.998833,187.361343 
	C36.272305,187.361343 51.314785,187.361343 66.680618,187.361343 
	C66.680618,207.022156 66.680618,226.726761 66.680618,247.001480 
	C62.017914,247.001480 57.410809,246.974106 52.804146,247.007736 
	C45.445698,247.061447 42.099274,249.844070 40.925911,257.008636 
	C34.612434,295.558777 28.327106,334.113495 22.023979,372.665344 
	C21.949612,373.120178 21.768097,373.557465 20.998835,373.974030 
	C20.998835,366.149353 20.998835,358.324677 20.998833,350.000000 
z"/>
<path fill="#000000" opacity="1.000000" stroke="none" 
	d="
M347.000000,453.971588 
	C347.000000,471.753876 345.769257,473.000000 328.694916,473.000000 
	C279.203339,473.000000 229.711746,473.002686 180.220154,472.997772 
	C170.277451,472.996796 167.004028,469.750458 167.002518,459.885010 
	C166.996429,419.891815 166.995392,379.898590 167.003296,339.905396 
	C167.005203,330.284424 170.289551,327.017761 179.921585,327.001617 
	C188.419968,326.987396 196.918365,326.989014 205.416748,326.973236 
	C205.733383,326.972656 206.049820,326.862762 206.999985,326.685822 
	C206.999985,317.884338 206.992096,308.958069 207.002121,300.031799 
	C207.012970,290.372498 210.304245,287.008148 219.795197,287.003815 
	C244.624313,286.992493 269.453430,286.991974 294.282532,287.004181 
	C303.539917,287.008728 306.977722,290.427094 306.996094,299.616119 
	C307.014008,308.579590 307.000000,317.543152 307.000000,327.000000 
	C316.443787,327.000000 325.553253,326.981018 334.662598,327.005402 
	C343.517151,327.029114 346.991241,330.534668 346.994354,339.496277 
	C347.007660,377.489960 347.000000,415.483673 347.000000,453.971588 
M186.998520,447.380951 
	C186.998520,449.147583 186.998520,450.914246 186.998520,452.633850 
	C234.013657,452.633850 280.394806,452.633850 326.682861,452.633850 
	C326.682861,432.879303 326.682861,413.493896 326.682861,393.569977 
	C324.597351,394.522705 322.951324,395.215485 321.357117,396.011993 
	C302.306946,405.529297 283.210999,414.957581 264.255493,424.660126 
	C259.158203,427.269226 254.759399,427.200287 249.651154,424.576294 
	C230.564621,414.771942 211.305664,405.303131 192.104141,395.722961 
	C190.667908,395.006378 189.174561,394.404266 186.998520,393.432037 
	C186.998520,411.562042 186.998520,428.985565 186.998520,447.380951 
M283.500000,346.998596 
	C251.419159,346.998596 219.338303,346.998596 186.999878,346.998596 
	C186.999878,354.509033 186.849670,361.328644 187.125046,368.131073 
	C187.180954,369.512360 188.532852,371.436646 189.808441,372.084473 
	C211.314102,383.006683 232.884415,393.802673 254.514908,404.475586 
	C255.881897,405.150116 258.153076,405.177826 259.510925,404.507904 
	C281.138641,393.837402 302.696228,383.024292 324.222565,372.150146 
	C325.359283,371.575958 326.832642,370.193756 326.865936,369.146851 
	C327.096832,361.883881 326.987701,354.610046 326.987701,346.998596 
	C312.431702,346.998596 298.465851,346.998596 283.500000,346.998596 
M284.305542,307.000732 
	C265.245148,307.000732 246.184769,307.000732 227.364288,307.000732 
	C227.364288,314.109741 227.364288,320.510376 227.364288,327.000000 
	C237.545624,327.000000 247.362991,327.000000 257.180359,327.000000 
	C267.085968,327.000000 276.991577,327.000000 286.999695,327.000000 
	C286.999695,320.960876 287.096985,315.636292 286.921143,310.320740 
	C286.884064,309.199402 285.845947,308.111145 284.305542,307.000732 
z"/>
<path fill="#020202" opacity="1.000000" stroke="none" 
	d="
M253.747299,92.150406 
	C267.749054,102.881813 270.544800,116.875244 262.182983,133.686234 
	C275.658173,142.203857 284.092010,154.189941 286.502106,170.140930 
	C286.774597,171.944504 286.936523,173.780243 286.958954,175.603409 
	C287.047089,182.754822 283.152649,186.956116 276.089844,186.974442 
	C249.955963,187.042267 223.821640,187.047684 197.687851,186.966171 
	C190.878174,186.944931 186.832825,182.756104 187.054596,175.886490 
	C187.574799,159.772385 194.404190,146.812576 207.152588,136.969894 
	C208.591766,135.858749 210.126785,134.871750 211.867676,133.651779 
	C207.595657,126.214027 205.070541,118.148659 208.119583,109.955788 
	C210.190674,104.390625 213.319794,98.647339 217.511841,94.558586 
	C227.195404,85.113602 240.911392,84.607025 253.747299,92.150406 
M264.224243,164.567917 
	C258.021271,152.367081 246.524994,145.763626 233.845184,147.118240 
	C222.301315,148.351471 211.886765,156.696533 209.316406,166.998886 
	C227.166000,166.998886 244.946625,167.016525 262.726685,166.926208 
	C263.354797,166.923019 263.977448,165.848846 264.224243,164.567917 
M243.757828,109.700600 
	C240.029129,106.573189 235.578873,105.555237 231.934021,108.719818 
	C229.501007,110.832237 227.656601,114.623795 227.289764,117.861176 
	C226.831863,121.902077 229.763504,124.936798 233.741776,126.357208 
	C238.216095,127.954750 242.053864,126.656090 244.836609,123.017250 
	C248.094406,118.757217 247.702316,114.369026 243.757828,109.700600 
z"/>
<path fill="#010101" opacity="1.000000" stroke="none" 
	d="
M335.000244,126.998940 
	C362.135437,126.999016 388.770691,126.985161 415.405945,127.009872 
	C421.378265,127.015411 425.170380,129.535355 426.599945,134.254349 
	C428.534729,140.641052 423.721924,146.863434 416.473022,146.956635 
	C405.154877,147.102188 393.833588,147.000275 382.513611,147.000763 
	C361.205414,147.001694 339.897186,147.020294 318.589050,146.988876 
	C312.263184,146.979538 308.123901,143.937271 307.147125,138.772232 
	C306.014893,132.785202 310.522766,127.273666 317.022400,127.052658 
	C322.842255,126.854759 328.673889,127.003265 335.000244,126.998940 
z"/>
<path fill="#010101" opacity="1.000000" stroke="none" 
	d="
M338.000000,187.001053 
	C331.007690,187.000809 324.514557,187.064438 318.023224,186.982315 
	C311.526917,186.900146 307.156372,182.945435 307.027771,177.213577 
	C306.894867,171.289490 311.373016,167.030014 318.086365,167.020508 
	C350.714478,166.974289 383.342682,166.974426 415.970795,167.021042 
	C422.447876,167.030304 426.843750,171.065155 426.969879,176.777359 
	C427.100494,182.693115 422.611115,186.964752 415.908661,186.978683 
	C390.105865,187.032318 364.302887,187.000824 338.000000,187.001053 
z"/>
<path fill="#010101" opacity="1.000000" stroke="none" 
	d="
M340.000000,86.998940 
	C365.470551,86.999016 390.441101,86.982643 415.411621,87.010612 
	C421.731689,87.017693 425.871277,90.060524 426.847870,95.225792 
	C428.013580,101.391571 423.318939,106.876709 416.467407,106.958557 
	C405.149017,107.093781 393.827911,107.000290 382.507935,107.000778 
	C361.199738,107.001694 339.891510,107.020424 318.583374,106.988792 
	C312.259949,106.979401 308.120209,103.933060 307.146362,98.766632 
	C306.017853,92.779701 310.527649,87.233574 317.027924,87.057854 
	C324.513672,86.855484 332.008881,87.003242 340.000000,86.998940 
z"/>
<path fill="#070707" opacity="1.000000" stroke="none" 
	d="
M416.199829,207.035416 
	C423.181244,207.805161 426.929718,211.373764 426.982971,216.897980 
	C427.028992,221.666122 423.497009,225.960052 418.788391,226.860306 
	C413.979675,227.779694 409.033417,224.757401 407.458160,219.937302 
	C405.599426,214.249680 408.858368,209.218246 416.199829,207.035416 
z"/>
<path fill="#6C91AB" opacity="1.000000" stroke="none" 
	d="
M186.998520,446.895020 
	C186.998520,428.985565 186.998520,411.562042 186.998520,393.432037 
	C189.174561,394.404266 190.667908,395.006378 192.104141,395.722961 
	C211.305664,405.303131 230.564621,414.771942 249.651154,424.576294 
	C254.759399,427.200287 259.158203,427.269226 264.255493,424.660126 
	C283.210999,414.957581 302.306946,405.529297 321.357117,396.011993 
	C322.951324,395.215485 324.597351,394.522705 326.682861,393.569977 
	C326.682861,413.493896 326.682861,432.879303 326.682861,452.633850 
	C280.394806,452.633850 234.013657,452.633850 186.998520,452.633850 
	C186.998520,450.914246 186.998520,449.147583 186.998520,446.895020 
z"/>
<path fill="#6C91AB" opacity="1.000000" stroke="none" 
	d="
M284.000000,346.998596 
	C298.465851,346.998596 312.431702,346.998596 326.987701,346.998596 
	C326.987701,354.610046 327.096832,361.883881 326.865936,369.146851 
	C326.832642,370.193756 325.359283,371.575958 324.222565,372.150146 
	C302.696228,383.024292 281.138641,393.837402 259.510925,404.507904 
	C258.153076,405.177826 255.881897,405.150116 254.514908,404.475586 
	C232.884415,393.802673 211.314102,383.006683 189.808441,372.084473 
	C188.532852,371.436646 187.180954,369.512360 187.125046,368.131073 
	C186.849670,361.328644 186.999878,354.509033 186.999878,346.998596 
	C219.338303,346.998596 251.419159,346.998596 284.000000,346.998596 
z"/>
<path fill="#FFDA8F" opacity="1.000000" stroke="none" 
	d="
M284.787292,307.004211 
	C285.845947,308.111145 286.884064,309.199402 286.921143,310.320740 
	C287.096985,315.636292 286.999695,320.960876 286.999695,327.000000 
	C276.991577,327.000000 267.085968,327.000000 257.180359,327.000000 
	C247.362991,327.000000 237.545624,327.000000 227.364288,327.000000 
	C227.364288,320.510376 227.364288,314.109741 227.364288,307.000732 
	C246.184769,307.000732 265.245148,307.000732 284.787292,307.004211 
z"/>
<path fill="#FC7C93" opacity="1.000000" stroke="none" 
	d="
M264.413452,164.920868 
	C263.977448,165.848846 263.354797,166.923019 262.726685,166.926208 
	C244.946625,167.016525 227.166000,166.998886 209.316406,166.998886 
	C211.886765,156.696533 222.301315,148.351471 233.845184,147.118240 
	C246.524994,145.763626 258.021271,152.367081 264.413452,164.920868 
z"/>
<path fill="#E2B59C" opacity="1.000000" stroke="none" 
	d="
M244.030060,109.972885 
	C247.702316,114.369026 248.094406,118.757217 244.836609,123.017250 
	C242.053864,126.656090 238.216095,127.954750 233.741776,126.357208 
	C229.763504,124.936798 226.831863,121.902077 227.289764,117.861176 
	C227.656601,114.623795 229.501007,110.832237 231.934021,108.719818 
	C235.578873,105.555237 240.029129,106.573189 244.030060,109.972885 
z"/>
</svg>